<?xml version="1.0" standalone="no"?>
<!DOCTYPE svg PUBLIC "-//W3C//DTD SVG 20010904//EN"
 "http://www.w3.org/TR/2001/REC-SVG-20010904/DTD/svg10.dtd">
<svg version="1.0" xmlns="http://www.w3.org/2000/svg"
 width="1013.000000pt" height="797.000000pt" viewBox="0 0 1013.000000 797.000000"
 preserveAspectRatio="xMidYMid meet">
<metadata>
Created by potrace 1.16, written by Peter Selinger 2001-2019
</metadata>
<g transform="translate(0.000000,797.000000) scale(0.100000,-0.100000)"
fill="#000000" stroke="none">
<path d="M9017 7945 c-79 -33 -143 -79 -422 -306 -132 -107 -329 -266 -437
-352 -222 -178 -280 -237 -331 -340 l-35 -73 -483 -339 c-266 -187 -513 -361
-550 -387 l-66 -47 -64 43 -64 44 -1065 157 c-586 86 -1075 159 -1086 162 -17
3 -30 25 -54 91 -40 109 -135 294 -164 320 -29 27 -257 162 -273 162 -16 0
-16 -1 -2 40 9 25 23 37 64 55 59 27 64 37 85 193 10 72 9 87 -4 108 -13 19
-15 40 -10 108 l7 85 -36 17 c-23 11 -41 30 -53 56 -28 63 -114 144 -191 181
-66 31 -72 32 -198 32 -120 0 -134 -2 -188 -27 -108 -51 -207 -169 -223 -265
-5 -33 -12 -44 -34 -53 -60 -25 -65 -40 -65 -183 0 -150 5 -166 65 -194 22
-10 40 -23 40 -30 0 -6 2 -18 5 -25 4 -11 -32 -25 -154 -57 -88 -24 -172 -51
-188 -61 -22 -13 -39 -43 -75 -136 -69 -172 -103 -298 -128 -473 -32 -220 -19
-314 61 -435 17 -26 30 -48 28 -50 -2 -2 -105 -72 -229 -156 -297 -202 -793
-573 -819 -613 -35 -54 -93 -777 -107 -1354 l-7 -263 -166 -148 c-251 -222
-459 -422 -741 -708 -322 -327 -327 -333 -345 -420 -17 -82 -39 -331 -33 -383
4 -31 -4 -48 -59 -128 -194 -279 -258 -611 -197 -1010 58 -377 306 -718 562
-772 38 -8 1090 -11 3786 -11 l3732 0 70 41 c163 98 393 302 542 480 227 272
444 698 555 1089 103 362 147 685 152 1125 l4 260 143 103 c170 123 185 136
193 172 9 43 -10 99 -90 267 -186 389 -408 628 -686 740 -153 62 -655 131
-1076 149 -186 8 -172 -2 -174 124 -1 98 -17 158 -49 181 -18 13 -65 23 -160
35 -74 9 -136 17 -138 18 -1 2 -7 41 -12 87 -14 112 -54 277 -101 418 -22 63
-39 116 -39 117 0 2 48 29 108 60 59 32 307 165 551 296 l445 238 84 0 c46 0
111 7 145 16 49 13 356 140 1092 452 54 23 149 86 213 140 105 89 197 240 233
380 24 94 26 305 4 399 -56 239 -261 472 -489 558 -64 24 -74 25 -309 25 -232
-1 -244 -2 -300 -25z m456 -120 c119 -25 210 -77 308 -174 68 -68 94 -103 127
-171 146 -295 59 -628 -211 -809 -107 -72 -205 -100 -352 -101 -188 0 -320 55
-455 190 -127 127 -189 262 -190 412 0 31 -4 59 -10 63 -13 8 -50 -118 -50
-170 l0 -44 -351 -241 c-194 -132 -354 -238 -357 -235 -3 3 -8 46 -10 95 -4
70 0 103 17 158 34 113 82 172 263 328 383 330 755 621 840 658 47 20 101 37
163 50 47 9 205 4 268 -9z m-5569 -163 c43 -11 82 -26 87 -33 12 -20 10 -117
-5 -164 -11 -38 -14 -40 -51 -40 -37 0 -40 3 -54 40 -18 49 -21 51 -85 59 -51
6 -51 6 -94 -40 l-42 -47 -110 5 c-66 3 -115 9 -122 16 -7 7 -14 54 -16 109
-6 132 -17 126 223 120 145 -4 209 -10 269 -25z m-67 -261 c10 -27 25 -44 45
-52 28 -11 30 -15 24 -50 -3 -20 -15 -57 -25 -82 -15 -35 -27 -47 -60 -61 -63
-24 -128 -21 -192 12 -51 25 -55 30 -72 86 -25 86 -13 105 68 106 57 0 104 20
122 50 13 22 25 30 46 30 24 0 31 -6 44 -39z m-532 -463 c60 -62 147 -120 224
-149 41 -16 85 -23 166 -26 105 -4 112 -3 165 24 40 21 61 40 81 73 22 39 30
45 54 42 16 -2 45 -12 65 -22 32 -16 36 -22 32 -49 -4 -28 12 -196 24 -252 l6
-26 -109 -6 c-186 -10 -250 -34 -691 -252 l-142 -71 -66 109 c-37 59 -65 110
-62 112 2 2 25 -9 51 -26 26 -16 51 -29 57 -29 29 0 -1 346 -42 485 -11 39
-21 74 -22 80 -1 8 96 30 144 34 8 0 38 -23 65 -51z m4529 -317 c7 -85 27
-165 57 -223 l19 -37 -803 -487 c-441 -269 -874 -532 -962 -586 -99 -60 -164
-93 -169 -88 -5 5 -12 37 -14 70 -5 71 15 133 56 174 26 26 1791 1255 1803
1256 3 0 9 -35 13 -79z m-2500 -427 c854 -122 1185 -173 1199 -184 18 -15 11
-21 -128 -119 l-146 -103 -662 90 c-739 102 -712 100 -789 33 l-41 -37 16 -49
c50 -152 86 -382 94 -602 6 -146 5 -153 -13 -153 -39 -1 -530 62 -549 69 -19
8 -22 23 -33 143 -22 249 -102 593 -197 853 -56 152 -58 161 -51 188 7 29 47
48 91 43 17 -2 561 -79 1209 -172z m275 -459 c260 -35 475 -66 476 -67 2 -2
-44 -34 -101 -73 -122 -83 -110 -62 -214 -385 -40 -124 -76 -229 -80 -233 -6
-7 -549 49 -558 57 -1 2 11 37 27 78 40 100 65 243 57 333 -7 90 -45 201 -96
282 -22 35 -40 66 -40 69 0 10 77 1 529 -61z m1510 -480 c17 -47 42 -129 55
-183 25 -99 53 -288 45 -297 -3 -2 -82 6 -177 18 -149 19 -171 24 -167 38 32
99 43 258 26 361 l-8 48 96 50 c53 27 97 49 98 50 0 0 15 -38 32 -85z m-363
-215 c-7 -89 -28 -187 -43 -200 -6 -5 -381 40 -410 49 -2 1 -3 9 -3 19 0 12
63 50 223 134 186 98 223 114 231 101 4 -8 5 -55 2 -103z m-842 -260 c901
-109 1640 -200 1641 -202 2 -2 4 -32 6 -68 l4 -65 -111 3 c-145 5 -163 -3
-249 -107 -62 -75 -70 -81 -103 -80 -21 0 -347 33 -727 73 l-690 73 -48 46
c-59 56 -200 153 -282 195 -164 82 -486 146 -861 172 -88 6 -178 13 -201 16
l-43 5 0 70 c0 48 4 69 13 69 6 0 749 -90 1651 -200z m-1854 -100 c74 -5 245
-17 380 -25 483 -31 750 -88 916 -196 152 -99 303 -277 402 -475 43 -86 95
-224 88 -231 -5 -5 -1523 122 -1596 133 -34 5 -36 8 -59 77 -32 101 -82 206
-135 286 -59 89 -175 197 -255 240 l-64 34 -101 -27 c-294 -79 -900 -348
-1396 -621 -58 -31 -133 -73 -167 -92 -35 -19 -63 -32 -63 -29 0 7 144 109
300 213 401 268 871 512 1249 648 194 69 252 84 311 79 30 -2 116 -9 190 -14z
m3915 -421 c300 -16 697 -68 877 -114 121 -30 285 -132 384 -237 70 -75 152
-187 217 -298 64 -111 113 -208 106 -213 -3 -3 -1295 118 -1306 122 -1 1 -7
26 -13 57 -16 74 -51 177 -82 239 -86 168 -271 339 -462 425 -36 17 -66 32
-66 33 0 4 98 0 345 -14z m-1460 -110 c661 -63 670 -65 824 -135 184 -84 352
-233 428 -379 67 -129 84 -204 90 -392 5 -149 4 -163 -11 -163 -10 0 -479 43
-1043 95 -565 52 -1032 95 -1040 95 -10 0 -13 18 -13 69 l0 69 141 134 141
133 -5 47 c-10 78 -74 256 -138 376 -32 63 -59 115 -59 117 0 2 15 2 33 -1 17
-2 311 -32 652 -65z m-2685 -537 c55 -110 95 -231 123 -367 32 -159 31 -485
-1 -660 -88 -469 -358 -858 -677 -977 -51 -19 -81 -22 -195 -22 -117 0 -143 3
-191 22 -130 52 -246 149 -336 282 -141 209 -214 440 -229 720 l-6 115 60 43
c34 23 63 42 67 42 3 0 5 -37 5 -82 0 -46 3 -100 6 -120 l7 -38 127 0 128 0
16 -72 c9 -40 19 -83 22 -95 6 -23 6 -23 -125 -23 -145 0 -144 1 -117 -65 l15
-35 135 0 135 0 48 -92 c37 -72 67 -112 133 -179 47 -47 104 -95 128 -106 l44
-21 -59 -12 c-55 -12 -194 -9 -238 4 -11 4 4 -6 34 -20 81 -40 178 -51 274
-31 98 20 153 46 229 109 401 334 522 1122 247 1603 -23 41 -41 77 -40 82 0 4
36 33 79 64 l77 56 17 -21 c9 -11 36 -59 58 -104z m1100 -197 c305 -19 588
-37 628 -41 l72 -6 0 -204 c0 -157 -3 -204 -12 -204 -7 0 -96 7 -198 15 -144
11 -188 11 -196 2 -7 -7 -15 -47 -19 -89 -6 -75 -6 -78 17 -87 12 -5 108 -14
212 -20 104 -6 190 -12 191 -13 10 -13 -48 -574 -60 -587 -3 -2 -94 0 -203 6
-118 7 -201 7 -208 2 -17 -14 -39 -158 -26 -171 5 -5 96 -15 204 -21 106 -5
194 -11 196 -12 8 -7 -66 -298 -110 -434 l-51 -153 -218 7 -219 7 -36 -77
c-31 -67 -34 -79 -22 -92 11 -10 66 -17 209 -25 107 -6 196 -12 199 -15 6 -6
-114 -246 -168 -333 -25 -41 -67 -104 -92 -138 l-45 -64 -224 4 -225 3 -58
-70 c-93 -109 -92 -109 140 -113 105 -1 192 -6 192 -10 0 -32 -245 -214 -377
-281 l-63 -31 -691 2 -691 3 69 50 c83 61 340 314 415 410 412 526 690 1268
772 2065 12 115 35 587 36 733 0 27 1 27 53 22 28 -3 302 -21 607 -40z m3795
-351 c281 -25 513 -51 516 -56 11 -17 22 -269 12 -278 -4 -4 -87 -2 -183 5
-96 7 -181 10 -188 8 -14 -6 -20 -28 -25 -106 -2 -34 1 -61 7 -66 6 -5 94 -14
196 -21 102 -6 188 -15 191 -18 15 -17 -37 -484 -61 -547 -9 -24 -13 -25 -57
-20 -27 3 -122 7 -212 8 l-165 2 -18 -60 c-10 -33 -17 -71 -16 -85 3 -25 4
-25 128 -32 258 -15 290 -19 290 -33 0 -28 -71 -247 -121 -375 l-53 -132 -60
6 c-34 3 -134 9 -223 12 l-161 7 -36 -78 c-26 -56 -33 -81 -26 -90 7 -8 52
-15 118 -19 59 -3 151 -9 205 -12 l98 -6 -27 -47 c-88 -153 -141 -237 -202
-320 l-68 -94 -226 2 -226 2 -51 -61 c-59 -70 -74 -97 -66 -110 4 -6 83 -10
196 -10 108 0 189 -4 189 -9 0 -13 -106 -104 -220 -189 l-95 -72 -552 0 -553
0 173 173 c241 241 378 429 532 732 194 379 334 853 395 1328 27 214 43 504
35 621 l-7 99 54 -7 c29 -3 283 -27 563 -52z m-6610 -777 c10 -49 15 -89 14
-91 -2 -1 -110 -74 -239 -161 -129 -87 -297 -200 -372 -252 l-137 -93 -29 42
c-37 53 -95 114 -146 154 l-39 31 459 322 459 322 7 -93 c4 -51 14 -133 23
-181z m-1071 -567 c92 -102 165 -259 192 -412 24 -136 15 -359 -20 -493 -38
-150 -118 -303 -210 -401 -85 -91 -155 -137 -246 -160 -235 -60 -446 111 -546
442 -25 81 -27 104 -28 259 -1 94 3 195 7 226 7 52 12 59 53 89 25 18 47 30
50 27 3 -3 -3 -42 -12 -88 -17 -81 -26 -300 -13 -313 3 -4 42 -9 87 -13 l80
-6 15 -58 15 -59 -89 0 -88 0 10 -30 c10 -27 15 -30 52 -30 23 0 65 -3 92 -6
48 -6 51 -8 75 -57 30 -60 106 -147 158 -179 l36 -22 -35 -9 c-19 -5 -61 -7
-94 -5 l-60 5 35 -16 c53 -24 173 -21 233 6 112 52 236 210 286 368 39 120 51
196 51 322 0 259 -92 472 -249 574 l-24 15 58 42 c66 46 71 46 129 -18z m979
-70 l27 -26 -151 -74 c-113 -54 -153 -70 -159 -60 -15 25 -21 104 -8 116 7 7
58 40 113 73 l100 62 25 -33 c14 -18 37 -44 53 -58z m792 -304 c66 -30 120
-92 162 -184 120 -259 54 -634 -147 -846 -91 -96 -159 -130 -255 -131 -59 0
-78 5 -124 30 -132 73 -211 241 -212 455 -2 214 49 375 168 532 112 147 277
206 408 144z m-949 -231 c52 -31 83 -70 123 -155 56 -120 62 -263 20 -428 -35
-139 -133 -279 -230 -327 -62 -32 -152 -34 -208 -5 -72 36 -137 132 -167 243
-18 68 -18 245 1 324 30 128 121 280 200 332 82 55 184 61 261 16z"/>
<path d="M9254 7725 c-231 -50 -394 -253 -394 -489 0 -151 41 -255 146 -366
112 -118 237 -166 408 -158 145 8 241 53 349 163 48 49 92 114 83 122 -2 2
-137 -37 -302 -85 -318 -95 -311 -94 -373 -52 -22 14 -7 23 346 189 202 95
372 177 377 182 13 12 -9 129 -28 147 -13 13 -62 -13 -401 -207 -212 -123
-392 -220 -400 -217 -19 7 -75 105 -75 131 0 28 561 549 597 553 13 2 45 -4
71 -12 l47 -16 -30 24 c-111 91 -266 125 -421 91z"/>
<path d="M4345 6185 c-16 -15 -25 -36 -25 -55 0 -35 38 -80 68 -80 36 0 72 38
72 76 0 40 -37 84 -70 84 -11 0 -32 -11 -45 -25z"/>
<path d="M4456 5765 c-36 -56 -9 -125 50 -125 67 0 97 69 53 124 -28 35 -80
36 -103 1z"/>
<path d="M4522 5317 c-29 -30 -30 -89 -2 -117 59 -59 146 20 106 98 -25 48
-69 56 -104 19z"/>
<path d="M5971 3474 c-12 -15 -21 -38 -21 -51 0 -34 42 -73 80 -73 38 0 80 39
80 73 0 42 -36 77 -80 77 -30 0 -43 -6 -59 -26z"/>
<path d="M6525 3425 c-34 -33 -33 -78 1 -110 15 -14 39 -25 54 -25 33 0 80 41
80 70 0 29 -26 76 -45 84 -33 12 -66 5 -90 -19z"/>
<path d="M7071 3364 c-12 -15 -21 -37 -21 -49 0 -12 9 -34 21 -49 16 -20 29
-26 59 -26 30 0 43 6 59 26 12 15 21 37 21 49 0 12 -9 34 -21 49 -16 20 -29
26 -59 26 -30 0 -43 -6 -59 -26z"/>
<path d="M7572 3317 c-31 -33 -29 -81 4 -112 33 -30 63 -32 97 -5 33 26 41 63
23 99 -25 48 -88 57 -124 18z"/>
<path d="M2563 1185 c-63 -32 -109 -83 -157 -175 -44 -83 -64 -161 -68 -260
l-3 -75 55 -5 c52 -5 55 -7 61 -37 3 -18 4 -35 1 -38 -3 -3 -27 -5 -54 -5 -41
0 -48 -3 -48 -20 0 -18 7 -20 60 -20 l60 0 21 -45 c12 -25 41 -63 66 -85 l44
-39 -38 -6 c-62 -11 -61 -13 2 -14 77 -1 127 22 186 85 89 96 136 214 146 365
10 156 -43 309 -127 365 -60 40 -140 43 -207 9z"/>
<path d="M1645 994 c-101 -52 -169 -187 -177 -349 l-3 -60 45 -5 c41 -5 45 -8
51 -37 l6 -33 -43 0 c-32 0 -44 -4 -44 -15 0 -11 12 -15 49 -15 45 0 50 -2 61
-30 7 -17 30 -48 51 -70 22 -22 39 -42 39 -44 0 -3 -15 -7 -32 -9 -29 -3 -28
-4 9 -5 70 -3 120 24 169 90 23 32 53 84 65 116 27 71 37 227 19 300 -15 65
-61 137 -102 162 -40 24 -120 27 -163 4z"/>
</g>
</svg>
